<?xml version="1.0" encoding="UTF-8"?>
<svg id="Layer_1" data-name="Layer 1" xmlns="http://www.w3.org/2000/svg" xmlns:xlink="http://www.w3.org/1999/xlink" viewBox="0 0 95.88 94.18">
  <defs>
    <style>
      .cls-1 {
        fill: none;
      }

      .cls-2 {
        fill: #231f20;
        font-family: MyriadPro-Regular, 'Myriad Pro';
        font-size: 2.37px;
      }

      .cls-3 {
        clip-path: url(#clippath);
      }

      .cls-4 {
        fill: #f9a621;
      }

      .cls-5 {
        fill: #00917e;
      }

      .cls-6 {
        clip-path: url(#clippath-1);
      }
    </style>
    <clipPath id="clippath">
      <rect class="cls-1" width="95.88" height="94.18"/>
    </clipPath>
    <clipPath id="clippath-1">
      <rect class="cls-1" width="95.88" height="94.18"/>
    </clipPath>
  </defs>
  <g class="cls-3">
    <g class="cls-6">
      <path class="cls-5" d="M31.22,74.93c-.17,.2,.19,.78-.67,.33-.67-.4-1.17-.8-1.73-1.38-.62-.61-1.13-1.19-1.58-1.78-.93-1.19-1.74-2.41-2.78-3.7l-.5,.04c-1.3-2.25-2.26-4.83-3.03-7.62-.91-2.51-1.63-5.21-2.25-8.02l-.45-2.11c-.12-.6-.22-1.18-.3-1.79-.15-1.2-.23-2.44-.21-3.69-.17,.12-.31,.18-.35-.32-.02-2.11,.57-5.06,1.56-8.01,.11-.44,.24-.89,.37-1.33,.03-.37-.08-.5-.15-.59,.52-1.33,1.08-2.47,1.65-3.5,.42-.95,.72-1.58,1.26-2.55,.5-.9,1.01-1.76,1.54-2.58,1.06-1.64,2.17-3.08,3.43-4.26,1.25-1.19,2.67-2.14,4.36-2.9,.85-.39,1.68-.68,2.86-1.08,1.06-.36,2.12-.7,3.2-1.02,4.29-1.29,8.7-2.29,13.18-2.71,4.47-.42,9.04-.25,13.35,1.03,3.7,.88,7.22,2.7,9.9,5.33,.99,1,1.87,2.12,2.79,3.48,.92,1.34,1.82,2.74,2.65,4.15,1.67,2.82,3.01,5.72,3.67,8.25,.62-.62,2.13,2.21,2.62,5.29,.56,3.05,.46,6.04,1.51,4.72-.17,.99-.4,2.09-.65,3.18l-.38,1.62c-.14,.54-.24,1.01-.42,1.61-.72,2.23-1.76,3.59-1.66,3.87,.23,.77,.13,2.15-1.21,4.34-1.35,2.16-3.94,5.07-8.75,8.18-1.91,1.17-4.5,2.33-6.87,3.18-2.35,.87-4.58,1.43-5.54,1.76-.53,.22-.46,.32-.09,.35,.39,.03,1.36-.09,2.13-.21,1.62-.25,3.12-.58,1.94,.06,4.21-1.44,7.92-3.24,11.58-5.43,1.82-1.11,3.6-2.32,5.35-3.72,1.74-1.41,3.46-2.99,5.06-5.02,.8-1.02,1.57-2.16,2.24-3.5,.34-.67,.64-1.39,.9-2.17,.07-.19,.13-.39,.19-.6l.14-.5,.19-.72c.49-1.91,.93-3.92,1.25-6.07,.31-2.15,.49-4.48,.33-6.9-.14-2.42-.66-4.87-1.41-7.1-1.53-4.48-3.75-8.05-5.92-11.35-.55-.83-1.11-1.63-1.66-2.43l-.93-1.29c-.35-.46-.7-.91-1.07-1.36-1.47-1.79-3.16-3.45-5.03-4.92-3.73-2.95-8.15-5.01-12.6-6.14-4.46-1.16-8.93-1.5-13.25-1.39-2.95,.2-10.02,.89-18.51,3.34l-1.6,.46-1.73,.53c-1.29,.42-2.63,.93-3.96,1.59-2.67,1.28-5.31,3.17-7.46,5.36-2.17,2.19-3.9,4.6-5.4,6.97l-1.12,1.83c-.19,.32-.38,.69-.57,1.04l-.51,.99c-.66,1.32-1.26,2.67-1.8,4.05-2.16,5.52-3.33,11.54-3.1,17.55,.05,1.5,.2,2.99,.44,4.47,.26,1.53,.48,2.6,.76,3.92,.54,2.53,1.17,5.03,1.95,7.45,1.53,4.83,3.75,9.28,6.27,12.73,1.25,1.73,2.54,3.23,3.77,4.49,1.27,1.29,2.24,2.18,3.37,3.14,.54,.43,1.09,.84,1.66,1.22,5.06,3.63,11.51,5.5,17.35,6.1,2.94,.32,5.78,.37,8.42,.27l1.94-.1c.6-.04,1.37-.09,1.91-.16l3.16-.34c3.79-.51,8.01-1.05,12.3-2.5-2.1,.25-3.95,.24-5.5,.15,2.09-.19,4.25-.52,6.09-1.06,1.84-.52,3.34-1.24,4.08-1.78,.74-.48,1.57-.93,2.13-1.3,.58-.37,.99-.68,1.27-.91,.55-.48,.54-.69,.2-.74-.67-.1-2.74,.41-4.36,.59-1.16,.34-1.11-.03-1.19-.3-.1-.3-.32-.43-2.03-.06,1.22-.4,1.95-.78,2.91-1.25,.89-.41,1.78-.81,2.94-1.38,.02-.25-1.69,.66-3.39,1.47-1.55,.86-3.03,1.26-2.34,.66,.57-.16,1.13-.38,1.67-.65l1.8-.92,3.48-1.84c-.53-.04-2.5,.92-4.42,1.74-.22,.1-.52,.22-.78,.36-.2,.1-.4,.19-.59,.27-.39,.16-.76,.29-1.07,.38-.63,.18-1.03,.21-.99,.05,.29-.13,.83-.28,1.47-.49,.32-.1,.66-.22,1-.36,.45-.2,.9-.36,1.28-.51,1.59-.6,3.01-1.28,3.06-1.71,.02-.16-2.24,.96-3.43,1.48,3.55-1.75,5.98-3.46,6.76-4.31,.76-.86,.05-.72-3.13,.6,2.1-1.1,5.11-2.65,6.61-4.22,0,0-.01,0-.02,0-.78,.72-2.51,1.82-3.47,2.41,1.16-.74,2.26-1.53,3.18-2.34l-.69,.2c-.78,.53-1.62,1.06-2.5,1.63,.76-.49,1.48-1,2.14-1.52l-2.18,.77c-2.87,1.39-6.07,2.19-7.73,2.96l-1.44,.65-.44,.22-.2,.09-.42,.17c-.58,.23-1.23,.43-1.94,.6-1.42,.34-3.05,.54-4.8,.66-1.75,.12-3.63,.16-5.61,.21l-3.09,.09-1.4,.05-1.34,.02c-7.22,.05-14.23-1.1-18.86-4.27"/>
      <path class="cls-4" d="M52.08,50.2c.23-.08,.46-.15,.69-.21-.58,.15-1.16,.29-1.74,.44,.25-.06,.51-.1,.77-.12-.56,.02-1.13,.04-1.69,.06,.17,0,.33,0,.5,.04-.52-.1-1.04-.2-1.56-.3,.09,.02,.17,.05,.25,.08-.45-.21-.91-.42-1.36-.63,.07,.04,.14,.08,.2,.13-.36-.31-.72-.63-1.08-.94,.07,.06,.12,.13,.17,.21-.24-.41-.48-.82-.72-1.22,.05,.1,.09,.2,.11,.31-.09-.46-.18-.92-.27-1.39,.02,.16,.02,.32,0,.48,.06-.47,.12-.94,.19-1.4-.04,.25-.11,.48-.21,.71,.2-.45,.4-.9,.6-1.35-.12,.26-.26,.49-.43,.72,.33-.41,.65-.82,.98-1.23-.12,.15-.25,.29-.39,.41,.44-.35,.87-.7,1.31-1.05-.09,.07-.17,.12-.27,.17,.53-.26,1.07-.52,1.6-.79-.05,.02-.09,.04-.13,.05,.58-.15,1.16-.29,1.74-.44-.05,.01-.09,.02-.13,.02,.56-.02,1.13-.04,1.69-.06-.04,0-.08,0-.12,0,.52,.1,1.04,.2,1.56,.3-.04-.01-.08-.02-.12-.04,.45,.21,.91,.42,1.36,.63-.04-.02-.07-.05-.11-.07,.36,.31,.72,.63,1.08,.94-.05-.05-.09-.1-.13-.16l.72,1.22c-.08-.14-.13-.3-.16-.46,.09,.46,.18,.92,.27,1.39-.05-.27-.07-.55-.07-.83-.03-3.36-3.76-4.84-6.68-4.43-3.14,.44-6.44,2.89-6.41,6.27,0,.28,.02,.55,.07,.83,.31,1.62,.27,1.67,1.16,3.06,.31,.49,.81,.88,1.31,1.17,1.53,.88,3.1,1.09,4.85,.93,2.79-.27,5.59-2.26,6.89-4.69,.78-1.47,.9-2.13,1.1-3.73,.16-1.23-.49-2.47-1.17-3.43-1.04-1.45-3.1-2.07-4.8-2.24-1.73-.17-3.53,.27-5.15,.82-2.85,.97-5.59,4.11-4.4,7.22,1.22,3.21,5.3,3.57,8.14,2.6"/>
    </g>
    <text class="cls-2" transform="translate(77.59 89.09) scale(1.02 1)"><tspan x="0" y="0">TM</tspan></text>
  </g>
</svg>