<?xml version="1.0" encoding="utf-8"?>
<!-- Generator: Adobe Illustrator 27.0.0, SVG Export Plug-In . SVG Version: 6.00 Build 0)  -->
<svg version="1.1" id="Layer_1" xmlns="http://www.w3.org/2000/svg" xmlns:xlink="http://www.w3.org/1999/xlink" x="0px" y="0px"
	 viewBox="0 0 288 432" style="enable-background:new 0 0 288 432;" xml:space="preserve">
<style type="text/css">
	.st0{stroke:#000000;stroke-miterlimit:10;}
</style>
<path d="M132.92,216.07l19.58-17.43c3.24-2.88,1.04-8.23-3.29-8.01l-0.01,0c-1.04,0.05-2.03,0.46-2.81,1.15l-24.16,21.51
	c-2.09,1.86-2.04,5.15,0.11,6.95l24.53,20.48c0.89,0.74,2.02,1.12,3.18,1.06l1.2-0.06c4.16-0.22,5.9-5.43,2.7-8.1L132.92,216.07"/>
<path class="st0" d="M176.49,216.38c0,18.28-14.82,33.1-33.1,33.1s-33.1-14.82-33.1-33.1s14.82-33.1,33.1-33.1
	S176.49,198.1,176.49,216.38z M143.6,175.76c-23.06,0-41.76,18.11-41.76,40.44s18.7,40.44,41.76,40.44s41.76-18.11,41.76-40.44
	S166.66,175.76,143.6,175.76z"/>
</svg>
